# xmcd CD database file
#
# Track frame offsets:
#	150
#	19798
#	31348
#	51302
#	63019
#	81080
#	92246
#	119344
#	132194
#
# Disc length: 2085 seconds
#
# Revision: 0
# Processed by: cddbd v1.4PL0 Copyright (c) Steve Scherf et al.
# Submitted via: CDex 1.50
#
DISCID=6f082309
DTITLE=Chrisina Orbé - Sway
DYEAR=2003
DGENRE=Blues
TTITLE0=No End
TTITLE1=Beach Song
TTITLE2=No Promises
TTITLE3=Undone
TTITLE4=Obsession
TTITLE5=The Argument
TTITLE6=Teardrops
TTITLE7=When We Walk
TTITLE8=Love Song
EXTD=YEAR: 2003
EXTT0=
EXTT1=
EXTT2=
EXTT3=
EXTT4=
EXTT5=
EXTT6=
EXTT7=
EXTT8=
PLAYORDER=
